<svg height="512pt" viewBox="0 0 512 512" width="512pt" xmlns="http://www.w3.org/2000/svg"><path d="m205.550781 204.910156c-38.910156 38.898438-104.121093 104.121094-141.152343 141.140625-20.808594 20.828125-32.269532 48.5-32.269532 77.917969 0 1.621094-.667968 3.222656-1.800781 4.359375-4.886719 4.902344-11.789063 11.792969-17.277344 17.261719-8.289062 8.320312-13.050781 19.820312-13.050781 31.550781v.019531c0 19.210938 15.628906 34.839844 34.839844 34.839844 11.78125 0 23.300781-4.769531 31.558594-13.058594 5.472656-5.460937 12.390624-12.371094 17.320312-17.3125 1.121094-1.117187 2.691406-1.757812 4.300781-1.757812 29.039063 0 57.449219-11.769532 77.929688-32.28125 37.03125-37.011719 102.242187-102.230469 141.140625-141.128906-18.710938-18.699219-80.148438-80.160157-101.539063-101.550782zm0 0"/><path d="m427.589844 0c-21.390625 0-41.511719 8.339844-56.628906 23.460938-16.882813 16.859374-41.8125 41.777343-61.671876 61.640624.882813.796876 1.75 1.628907 2.601563 2.476563l112.488281 112.492187c.859375.859376 1.710938 1.738282 2.519532 2.640626 19.863281-19.851563 44.792968-44.769532 61.671874-61.632813 15.109376-15.117187 23.429688-35.238281 23.429688-56.667969 0-46.539062-37.871094-84.410156-84.410156-84.410156zm0 0"/><path d="m290.695312 108.816406c-19.128906-19.097656-50.261718-19.097656-69.390624 0-19.234376 19.199219-19.210938 50.257813-.003907 69.429688 15.179688 15.164062 112.46875 112.46875 112.46875 112.46875 19.136719 19.105468 50.269531 19.09375 69.394531 0 19.234376-19.199219 19.207032-50.261719.003907-69.429688zm0 0"/></svg>